<svg 
 xmlns="http://www.w3.org/2000/svg"
 xmlns:xlink="http://www.w3.org/1999/xlink"
 width="487px" height="65px">
<path fill-rule="evenodd"  fill="rgb(145, 255, 38)"
 d="M447.014,52.546 L447.014,43.257 L475.312,32.888 L447.014,22.519 L447.014,13.303 L486.545,28.136 L486.545,37.641 L447.014,52.546 ZM400.310,61.691 L429.976,0.414 L436.745,3.438 L407.006,64.787 L400.310,61.691 ZM386.743,36.921 C388.328,37.497 390.128,38.433 391.352,39.585 C392.504,40.737 394.232,43.041 394.232,46.786 C394.232,50.458 392.648,53.338 390.056,55.426 C387.464,57.442 383.935,58.523 379.183,58.523 C373.854,58.523 368.238,56.866 364.205,53.050 L368.526,46.209 C371.406,48.658 376.159,50.530 379.039,50.530 C381.919,50.530 383.935,49.810 383.935,47.506 C383.935,45.201 378.751,44.049 377.455,43.617 C376.086,43.257 374.070,42.681 372.414,41.961 C370.758,41.241 366.366,39.009 366.366,32.672 C366.366,25.760 372.414,21.511 379.831,21.511 C387.247,21.511 391.424,24.248 393.440,25.904 L389.696,32.672 C387.680,31.088 383.647,29.216 380.767,29.216 C378.031,29.216 376.519,29.936 376.519,31.808 C376.519,33.680 379.255,34.544 381.703,35.265 C384.151,35.985 385.231,36.345 386.743,36.921 ZM350.462,18.127 C346.574,18.127 343.910,15.751 343.910,12.151 C343.910,8.622 346.574,6.174 350.462,6.174 C354.351,6.174 357.015,8.622 357.015,12.151 C357.015,15.751 354.351,18.127 350.462,18.127 ZM322.504,39.081 C322.504,34.760 321.928,31.016 317.103,31.016 C312.279,31.016 310.767,35.049 310.767,40.305 L310.767,57.730 L299.246,57.730 L299.246,8.046 L310.767,8.046 L310.767,19.855 C310.767,23.456 310.695,27.344 310.695,27.344 C312.495,24.176 315.879,21.583 321.136,21.583 C331.433,21.583 334.097,28.136 334.097,36.777 L334.097,57.730 L322.504,57.730 L322.504,39.081 ZM282.679,43.761 C282.679,46.786 283.111,47.506 283.687,48.154 C284.191,48.730 284.911,49.018 286.423,49.018 C288.223,49.018 289.880,48.370 289.880,48.370 L290.456,57.370 C289.591,57.586 286.423,58.523 282.247,58.523 C278.143,58.523 275.406,57.298 273.606,55.210 C271.806,53.122 271.086,50.170 271.086,44.769 L271.086,31.016 L266.045,31.016 L266.045,22.303 L271.086,22.303 L271.086,12.655 L282.679,12.655 L282.679,22.303 L290.528,22.303 L290.528,31.016 L282.679,31.016 L282.679,43.761 ZM217.414,28.136 L256.945,13.303 L256.945,22.519 L228.647,32.888 L256.945,43.257 L256.945,52.546 L217.414,37.641 L217.414,28.136 ZM155.278,8.046 L187.465,8.046 L187.465,17.335 L166.871,17.335 L166.871,27.488 L186.312,27.488 L186.312,36.777 L166.871,36.777 L166.871,48.298 L188.113,48.298 L188.113,57.730 L155.278,57.730 L155.278,8.046 ZM118.287,57.730 L99.853,8.046 L112.238,8.046 L123.903,42.249 L135.496,8.046 L147.810,8.046 L129.376,57.730 L118.287,57.730 ZM88.121,57.730 L84.592,47.722 L66.879,47.722 L63.350,57.730 L51.253,57.730 L69.975,7.974 L82.072,7.974 L100.794,57.730 L88.121,57.730 ZM75.735,20.791 L69.543,38.649 L81.928,38.649 L75.735,20.791 ZM32.089,36.921 L12.143,36.921 L12.143,57.730 L0.478,57.730 L0.478,8.046 L12.143,8.046 L12.143,27.272 L32.089,27.272 L32.089,8.046 L43.754,8.046 L43.754,57.730 L32.089,57.730 L32.089,36.921 ZM356.223,57.730 L344.702,57.730 L344.702,22.231 L356.223,22.231 L356.223,57.730 Z"/>
</svg>
